<svg viewBox="0 0 240 240" xmlns="http://www.w3.org/2000/svg">
  <g fill="none" stroke="#18314f" stroke-linecap="round" stroke-linejoin="round">
    
    <!-- outer stamp rings -->
    <circle
      cx="120"
      cy="120"
      r="82"
      stroke-width="2.4"
      stroke-opacity="0.14"
      stroke-dasharray="7 10"
    />
    <circle
      cx="120"
      cy="120"
      r="62"
      stroke-width="1.8"
      stroke-opacity="0.12"
      stroke-dasharray="4 8"
    />

    <!-- top and bottom arcs -->
    <path
      d="M76 74C88 64 103 58 120 58C137 58 152 64 164 74"
      stroke-width="2"
      stroke-opacity="0.13"
    />
    <path
      d="M76 166C88 176 103 182 120 182C137 182 152 176 164 166"
      stroke-width="2"
      stroke-opacity="0.13"
    />

    <!-- center globe -->
    <circle
      cx="120"
      cy="120"
      r="24"
      stroke-width="1.8"
      stroke-opacity="0.13"
    />
    <ellipse
      cx="120"
      cy="120"
      rx="24"
      ry="10"
      stroke-width="1.2"
      stroke-opacity="0.11"
    />
    <ellipse
      cx="120"
      cy="120"
      rx="10"
      ry="24"
      stroke-width="1.2"
      stroke-opacity="0.11"
    />
    <path
      d="M96 120H144"
      stroke-width="1.2"
      stroke-opacity="0.11"
    />

    <!-- passport text bars -->
    <line x1="72" y1="94" x2="98" y2="94" stroke-width="2" stroke-opacity="0.12"/>
    <line x1="142" y1="94" x2="168" y2="94" stroke-width="2" stroke-opacity="0.12"/>
    <line x1="72" y1="146" x2="98" y2="146" stroke-width="2" stroke-opacity="0.12"/>
    <line x1="142" y1="146" x2="168" y2="146" stroke-width="2" stroke-opacity="0.12"/>

    <!-- entry/exit bars -->
    <line x1="84" y1="108" x2="156" y2="108" stroke-width="1.5" stroke-opacity="0.1"/>
    <line x1="84" y1="132" x2="156" y2="132" stroke-width="1.5" stroke-opacity="0.1"/>

    <!-- tiny stars / markers -->
    <path d="M120 44L122 49L127 51L122 53L120 58L118 53L113 51L118 49L120 44Z"
      fill="#18314f" fill-opacity="0.12" stroke="none"/>
    <path d="M120 182L122 187L127 189L122 191L120 196L118 191L113 189L118 187L120 182Z"
      fill="#18314f" fill-opacity="0.10" stroke="none"/>
  </g>
</svg>