<svg viewBox="0 0 240 240" xmlns="http://www.w3.org/2000/svg">
  <g fill="none" stroke="#18314f" stroke-linecap="round" stroke-linejoin="round">
    
    <!-- flight path -->
    <path
      d="M28 186C54 150 88 124 126 106C154 93 182 74 208 42"
      stroke-width="2.2"
      stroke-opacity="0.18"
      stroke-dasharray="6 10"
    />

    <!-- plane -->
    <g transform="translate(150 92) rotate(-28)">
      <!-- fuselage -->
      <path
        d="M-42 0L28 0C35 0 42 -3 48 -8L58 -16L61 -12L52 0L61 12L58 16L48 8C42 3 35 0 28 0H-42Z"
        fill="#18314f"
        fill-opacity="0.16"
        stroke="#18314f"
        stroke-opacity="0.22"
        stroke-width="1.5"
      />

      <!-- main wings -->
      <path
        d="M-6 0L16 -28L24 -28L12 0Z"
        fill="#18314f"
        fill-opacity="0.14"
        stroke="#18314f"
        stroke-opacity="0.18"
        stroke-width="1.2"
      />
      <path
        d="M-6 0L16 28L24 28L12 0Z"
        fill="#18314f"
        fill-opacity="0.14"
        stroke="#18314f"
        stroke-opacity="0.18"
        stroke-width="1.2"
      />

      <!-- tail wings -->
      <path
        d="M-30 0L-18 -14L-11 -14L-20 0Z"
        fill="#18314f"
        fill-opacity="0.13"
        stroke="#18314f"
        stroke-opacity="0.16"
        stroke-width="1"
      />
      <path
        d="M-30 0L-18 14L-11 14L-20 0Z"
        fill="#18314f"
        fill-opacity="0.13"
        stroke="#18314f"
        stroke-opacity="0.16"
        stroke-width="1"
      />

      <!-- tail fin -->
      <path
        d="M-22 0L-16 -16L-10 -16L-13 0Z"
        fill="#18314f"
        fill-opacity="0.13"
        stroke="#18314f"
        stroke-opacity="0.16"
        stroke-width="1"
      />
    </g>
  </g>
</svg>